<svg xmlns="http://www.w3.org/2000/svg" width="800" height="320" viewBox="0 0 800 320">
  <rect width="800" height="320" fill="#12141a"/>
  <text x="20" y="28" fill="#eee" font-family="sans-serif" font-size="18">orion-vell — freeze coolness</text>
  <text x="20" y="50" fill="#9aa" font-family="sans-serif" font-size="12">silhouette cue: orbit rings · posture: elevated</text>
  <g transform="translate(40,70)"><ellipse cx="70" cy="40" rx="22" ry="24" fill="#9B7EDE"/><rect x="50" y="70" width="40" height="85" rx="6" fill="#9B7EDE"/><circle cx="70" cy="110" r="48" fill="none" stroke="#9B7EDE" stroke-width="3" opacity="0.5"/><rect x="52" y="150" width="14" height="70" fill="#9B7EDE"/><rect x="74" y="150" width="14" height="70" fill="#9B7EDE"/><text x="70" y="240" text-anchor="middle" fill="#ccc" font-size="14" font-family="sans-serif">Front</text></g><g transform="translate(230,70)"><ellipse cx="70" cy="40" rx="22" ry="24" fill="#9B7EDE"/><rect x="50" y="70" width="40" height="85" rx="6" fill="#9B7EDE"/><circle cx="70" cy="110" r="48" fill="none" stroke="#9B7EDE" stroke-width="3" opacity="0.5"/><rect x="52" y="150" width="14" height="70" fill="#9B7EDE"/><rect x="74" y="150" width="14" height="70" fill="#9B7EDE"/><text x="70" y="240" text-anchor="middle" fill="#ccc" font-size="14" font-family="sans-serif">Side</text></g><g transform="translate(420,70)"><ellipse cx="70" cy="40" rx="22" ry="24" fill="#9B7EDE"/><rect x="50" y="70" width="40" height="85" rx="6" fill="#9B7EDE"/><circle cx="70" cy="110" r="48" fill="none" stroke="#9B7EDE" stroke-width="3" opacity="0.5"/><rect x="52" y="150" width="14" height="70" fill="#9B7EDE"/><rect x="74" y="150" width="14" height="70" fill="#9B7EDE"/><text x="70" y="240" text-anchor="middle" fill="#ccc" font-size="14" font-family="sans-serif">Back</text></g><g transform="translate(610,70)"><ellipse cx="70" cy="40" rx="22" ry="24" fill="#9B7EDE"/><rect x="50" y="70" width="40" height="85" rx="6" fill="#9B7EDE"/><circle cx="70" cy="110" r="48" fill="none" stroke="#9B7EDE" stroke-width="3" opacity="0.5"/><rect x="52" y="150" width="14" height="70" fill="#9B7EDE"/><rect x="74" y="150" width="14" height="70" fill="#9B7EDE"/><text x="70" y="240" text-anchor="middle" fill="#ccc" font-size="14" font-family="sans-serif">3/4</text></g></svg>