<svg xmlns="http://www.w3.org/2000/svg" width="800" height="320" viewBox="0 0 800 320">
  <rect width="800" height="320" fill="#12141a"/>
  <text x="20" y="28" fill="#eee" font-family="sans-serif" font-size="18">vesper-nyx — F/S/B/3Q</text>
  <text x="20" y="50" fill="#9aa" font-family="sans-serif" font-size="12">silhouette cue: cloak flare · posture: asym idle</text>
  <g transform="translate(40,70)"><ellipse cx="70" cy="40" rx="22" ry="24" fill="#4A3566"/><rect x="48" y="70" width="44" height="80" rx="6" fill="#4A3566"/><path d="M40 70 L20 160 L60 140 Z" fill="#4A3566" opacity="0.85"/><rect x="52" y="150" width="14" height="70" fill="#4A3566"/><rect x="74" y="150" width="14" height="70" fill="#4A3566"/><text x="70" y="240" text-anchor="middle" fill="#ccc" font-size="14" font-family="sans-serif">Front</text></g><g transform="translate(230,70)"><ellipse cx="70" cy="40" rx="22" ry="24" fill="#4A3566"/><rect x="48" y="70" width="44" height="80" rx="6" fill="#4A3566"/><path d="M40 70 L20 160 L60 140 Z" fill="#4A3566" opacity="0.85"/><rect x="52" y="150" width="14" height="70" fill="#4A3566"/><rect x="74" y="150" width="14" height="70" fill="#4A3566"/><text x="70" y="240" text-anchor="middle" fill="#ccc" font-size="14" font-family="sans-serif">Side</text></g><g transform="translate(420,70)"><ellipse cx="70" cy="40" rx="22" ry="24" fill="#4A3566"/><rect x="48" y="70" width="44" height="80" rx="6" fill="#4A3566"/><path d="M40 70 L20 160 L60 140 Z" fill="#4A3566" opacity="0.85"/><rect x="52" y="150" width="14" height="70" fill="#4A3566"/><rect x="74" y="150" width="14" height="70" fill="#4A3566"/><text x="70" y="240" text-anchor="middle" fill="#ccc" font-size="14" font-family="sans-serif">Back</text></g><g transform="translate(610,70)"><ellipse cx="70" cy="40" rx="22" ry="24" fill="#4A3566"/><rect x="48" y="70" width="44" height="80" rx="6" fill="#4A3566"/><path d="M40 70 L20 160 L60 140 Z" fill="#4A3566" opacity="0.85"/><rect x="52" y="150" width="14" height="70" fill="#4A3566"/><rect x="74" y="150" width="14" height="70" fill="#4A3566"/><text x="70" y="240" text-anchor="middle" fill="#ccc" font-size="14" font-family="sans-serif">3/4</text></g></svg>